<svg width="31" height="31" viewBox="0 0 31 31" fill="none" xmlns="http://www.w3.org/2000/svg">
<path d="M15.5 27.125C21.9203 27.125 27.125 21.9203 27.125 15.5C27.125 9.07969 21.9203 3.875 15.5 3.875C9.07969 3.875 3.875 9.07969 3.875 15.5C3.875 21.9203 9.07969 27.125 15.5 27.125Z" stroke="#1F2937" stroke-width="2" stroke-linecap="round" stroke-linejoin="round"/>
<path d="M14.6049 12.5795L19.375 11.625L18.4205 16.3951C18.3205 16.8951 18.0749 17.3543 17.7145 17.7149C17.3541 18.0756 16.895 18.3215 16.3951 18.4217L11.625 19.375L12.5795 14.6049C12.6797 14.1051 12.9254 13.6462 13.2858 13.2858C13.6462 12.9254 14.1051 12.6797 14.6049 12.5795Z" stroke="#1F2937" stroke-width="2" stroke-linecap="round" stroke-linejoin="round"/>
</svg>
