<svg width="24" height="24" viewBox="0 0 24 24" fill="none" xmlns="http://www.w3.org/2000/svg">
<path d="M6.875 3V6V3ZM16.875 3V6V3Z" fill="#6366F1"/>
<path d="M6.875 3V6M16.875 3V6" stroke="#1F2937" stroke-width="2" stroke-linecap="round"/>
<mask id="path-3-inside-1_94_473" fill="white">
<path d="M20 23H3.75C2.7125 23 1.875 22.1625 1.875 21.125V6.125C1.875 5.0875 2.7125 4.25 3.75 4.25H20C21.0375 4.25 21.875 5.0875 21.875 6.125V21.125C21.875 22.1625 21.0375 23 20 23ZM3.75 5.5C3.4 5.5 3.125 5.775 3.125 6.125V21.125C3.125 21.475 3.4 21.75 3.75 21.75H20C20.35 21.75 20.625 21.475 20.625 21.125V6.125C20.625 5.775 20.35 5.5 20 5.5H3.75Z"/>
</mask>
<path d="M20 23H3.75C2.7125 23 1.875 22.1625 1.875 21.125V6.125C1.875 5.0875 2.7125 4.25 3.75 4.25H20C21.0375 4.25 21.875 5.0875 21.875 6.125V21.125C21.875 22.1625 21.0375 23 20 23ZM3.75 5.5C3.4 5.5 3.125 5.775 3.125 6.125V21.125C3.125 21.475 3.4 21.75 3.75 21.75H20C20.35 21.75 20.625 21.475 20.625 21.125V6.125C20.625 5.775 20.35 5.5 20 5.5H3.75Z" fill="#1F2937"/>
<path d="M20 23V21.75H3.75V23V24.25H20V23ZM3.75 23V21.75C3.40286 21.75 3.125 21.4721 3.125 21.125H1.875H0.625C0.625 22.8529 2.02214 24.25 3.75 24.25V23ZM1.875 21.125H3.125V6.125H1.875H0.625V21.125H1.875ZM1.875 6.125H3.125C3.125 5.77786 3.40286 5.5 3.75 5.5V4.25V3C2.02214 3 0.625 4.39714 0.625 6.125H1.875ZM3.75 4.25V5.5H20V4.25V3H3.75V4.25ZM20 4.25V5.5C20.3471 5.5 20.625 5.77786 20.625 6.125H21.875H23.125C23.125 4.39714 21.7279 3 20 3V4.25ZM21.875 6.125H20.625V21.125H21.875H23.125V6.125H21.875ZM21.875 21.125H20.625C20.625 21.4721 20.3471 21.75 20 21.75V23V24.25C21.7279 24.25 23.125 22.8529 23.125 21.125H21.875ZM3.75 5.5V4.25C2.70964 4.25 1.875 5.08464 1.875 6.125H3.125H4.375C4.375 6.46536 4.09036 6.75 3.75 6.75V5.5ZM3.125 6.125H1.875V21.125H3.125H4.375V6.125H3.125ZM3.125 21.125H1.875C1.875 22.1654 2.70964 23 3.75 23V21.75V20.5C4.09036 20.5 4.375 20.7846 4.375 21.125H3.125ZM3.75 21.75V23H20V21.75V20.5H3.75V21.75ZM20 21.75V23C21.0404 23 21.875 22.1654 21.875 21.125H20.625H19.375C19.375 20.7846 19.6596 20.5 20 20.5V21.75ZM20.625 21.125H21.875V6.125H20.625H19.375V21.125H20.625ZM20.625 6.125H21.875C21.875 5.08464 21.0404 4.25 20 4.25V5.5V6.75C19.6596 6.75 19.375 6.46536 19.375 6.125H20.625ZM20 5.5V4.25H3.75V5.5V6.75H20V5.5Z" fill="#1F2937" mask="url(#path-3-inside-1_94_473)"/>
</svg>
