<svg width="56" height="32" viewBox="0 0 56 32" fill="none" xmlns="http://www.w3.org/2000/svg">
<g clip-path="url(#clip0_94_423)">
<rect width="56" height="32" rx="16" fill="#E8DEF8"/>
<path fill-rule="evenodd" clip-rule="evenodd" d="M24 11C24 9.93913 24.4214 8.92172 25.1716 8.17157C25.9217 7.42143 26.9391 7 28 7C29.0609 7 30.0783 7.42143 30.8284 8.17157C31.5786 8.92172 32 9.93913 32 11C32 12.0609 31.5786 13.0783 30.8284 13.8284C30.0783 14.5786 29.0609 15 28 15C26.9391 15 25.9217 14.5786 25.1716 13.8284C24.4214 13.0783 24 12.0609 24 11ZM24 17C22.6739 17 21.4021 17.5268 20.4645 18.4645C19.5268 19.4021 19 20.6739 19 22C19 22.7956 19.3161 23.5587 19.8787 24.1213C20.4413 24.6839 21.2044 25 22 25H34C34.7956 25 35.5587 24.6839 36.1213 24.1213C36.6839 23.5587 37 22.7956 37 22C37 20.6739 36.4732 19.4021 35.5355 18.4645C34.5979 17.5268 33.3261 17 32 17H24Z" fill="#6366F1"/>
</g>
<defs>
<clipPath id="clip0_94_423">
<rect width="56" height="32" rx="16" fill="white"/>
</clipPath>
</defs>
</svg>
