<svg width="56" height="32" viewBox="0 0 56 32" fill="none" xmlns="http://www.w3.org/2000/svg">
<g clip-path="url(#clip0_90_459)">
<rect width="56" height="32" rx="16" fill="#E8DEF8"/>
<path d="M18 13C18 11.114 18 10.172 18.586 9.586C19.172 9 20.114 9 22 9H34C35.886 9 36.828 9 37.414 9.586C38 10.172 38 11.114 38 13C38 13.471 38 13.707 37.854 13.854C37.707 14 37.47 14 37 14H19C18.529 14 18.293 14 18.146 13.854C18 13.707 18 13.47 18 13ZM18 22C18 23.886 18 24.828 18.586 25.414C19.172 26 20.114 26 22 26H34C35.886 26 36.828 26 37.414 25.414C38 24.828 38 23.886 38 22V17C38 16.529 38 16.293 37.854 16.146C37.707 16 37.47 16 37 16H19C18.529 16 18.293 16 18.146 16.146C18 16.293 18 16.53 18 17V22Z" fill="#6366F1"/>
<path d="M23 7V10V7ZM33 7V10V7Z" fill="#6366F1"/>
<path d="M23 7V10M33 7V10" stroke="#6366F1" stroke-width="2" stroke-linecap="round"/>
</g>
<defs>
<clipPath id="clip0_90_459">
<rect width="56" height="32" rx="16" fill="white"/>
</clipPath>
</defs>
</svg>
